# xmcd
#
# Track frame offsets: 
#        150
#        17135
#        39204
#        55437
#        71599
#        93474
#        115207
#        129739
#        148118
#        164509
#        182699
#        203169
#        241854
#        256247
#        274324
#
# Disc length: 3821 seconds
#
# Revision: 0
# Processed by: cddbd v1.5.2PL0 Copyright (c) Steve Scherf et al.
# Submitted via: ExactAudioCopy v0.95b4
#
DISCID=dc0eeb0f
DTITLE=The Urban Sophisticates - The Urban Sophisticates
DYEAR=2003
DGENRE=Hip-Hop
TTITLE0=Greene Street
TTITLE1=Philadelphia
TTITLE2=Just Not Urban Enough
TTITLE3=Fools of the New School
TTITLE4=London Trenchcoat
TTITLE5=It's Like That (White Sneakers)
TTITLE6=Guerillas in the Midst
TTITLE7=It's Gotta Be the Hardest Thing
TTITLE8=Take the Train Home
TTITLE9=Apartment 3A
TTITLE10=My Apology
TTITLE11=Missing My Love
TTITLE12=Breakups
TTITLE13=Young Love
TTITLE14=League of Evil
EXTD=Executive Producer - Benton James\nAssociate Producers - Aaron Ja
EXTD=mes, Jonathan Hooker, Fatin Horton\n\nWritten by:\nB. James, J.De
EXTD=nman, R.Kee, J.Windor, T.Hooker, A.James, A.Newman, R.Nxumalo\n\n
EXTD=The Urban Sophisticates are:\nBenton James - Head MC\nJeremy Denm
EXTD=an - Trumpet\nSal Mascali - Trombone\nTim Hooker - Guitar\nRicky 
EXTD=Nxumale - Bass\nAaron James - Vocals\nRomondo Jessup - Drums\n\nT
EXTD=he Urban Sophisticates thank our Lord and Savior Jesus Christ, an
EXTD=d Coutlness Numbers of close firneds and family for all of their 
EXTD=support.\n\nSpecial Thanks to Eddy Barnes, Joel Streich, Jason Wi
EXTD=ndsor, Nate Rose, Grace Comunity Church, Jessica Shelton, Leland,
EXTD=Eric Baumber, Tim Stephens, The Pritchards, and to everyone who 
EXTD=was forgotten....\nThanks
EXTT0=
EXTT1=
EXTT2=
EXTT3=
EXTT4=
EXTT5=
EXTT6=
EXTT7=
EXTT8=
EXTT9=
EXTT10=
EXTT11=
EXTT12=
EXTT13=
EXTT14=
PLAYORDER=
